<svg xmlns="http://www.w3.org/2000/svg">

  <symbol fill="none" viewBox="0 0 603 816" id="shadow" xmlns="http://www.w3.org/2000/svg">
    <path d="M206 259C51.6 271.8 6 403.667 1.5 468-8.1 648.4 119.167 775.167 185 816h418V0s-28.5 24.5-33 69c-37 193-35.5 222-102.5 231.5S316 249.881 206 259Z" fill="#F0F1F3"/>
  </symbol>

  <symbol fill="none" viewBox="0 0 15 9" id="return" xmlns="http://www.w3.org/2000/svg">
    <path d="M14 1.5v3H2m0 0L5.5 1M2 4.5 5.5 8" stroke="#000" stroke-width="2"/>
  </symbol>

  <!-- Trash -->
  <symbol fill="none" viewBox="0 0 16 16" id="trash" xmlns="http://www.w3.org/2000/svg">
    <path d="M2 4h12M12.667 4v9.333a1.334 1.334 0 0 1-1.334 1.334H4.667a1.334 1.334 0 0 1-1.334-1.334V4m2 0V2.667a1.333 1.333 0 0 1 1.334-1.334h2.666a1.334 1.334 0 0 1 1.334 1.334V4M6.667 7.333v4M9.333 7.333v4" stroke="#0EF387" style="stroke: var(--currentColor, #0EF387)" stroke-width="1.5" stroke-linecap="round" stroke-linejoin="round"/>
  </symbol>

  <!-- Edit -->
  <symbol id="edit" viewBox="0 0 32 32">
    <path fill="none" stroke="#0ef387" style="stroke: var(--currentColor, #0ef387)" stroke-linejoin="round" stroke-linecap="round" stroke-miterlimit="4" stroke-width="3" d="M22.666 4c0.35-0.35 0.766-0.628 1.223-0.817s0.948-0.287 1.443-0.287c0.495 0 0.986 0.098 1.443 0.287s0.873 0.467 1.224 0.817 0.628 0.766 0.817 1.223c0.19 0.458 0.287 0.948 0.287 1.443s-0.098 0.986-0.287 1.443c-0.189 0.458-0.467 0.873-0.817 1.223l-18 18-7.333 2 2-7.333 18-18z" />
  </symbol>

  <!-- slim-mom -->
  <symbol fill="none" viewBox="0 0 106 16" id="slim-mom" xmlns="http://www.w3.org/2000/svg">
    <path d="m0 13.582.729-.845c.859.788 1.707 1.362 2.545 1.721.838.352 1.802.528 2.894.528 1.126 0 2.045-.285 2.756-.855.711-.57 1.067-1.303 1.067-2.197 0-.563-.116-1.031-.349-1.405-.225-.373-.655-.71-1.288-1.013-.627-.303-1.507-.57-2.64-.803-1.824-.373-3.134-.89-3.93-1.553C.997 6.492.603 5.576.603 4.415c0-1.134.461-2.081 1.383-2.841C2.908.814 4.07.433 5.471.433c1.07 0 2.003.148 2.798.444.796.288 1.592.753 2.387 1.394l-.707.887c-.698-.606-1.412-1.042-2.144-1.31a6.815 6.815 0 0 0-2.377-.401c-1.098 0-1.989.278-2.672.834-.683.55-1.024 1.24-1.024 2.07 0 .57.113 1.046.338 1.426.232.373.672.722 1.32 1.045.655.317 1.57.595 2.746.835 1.753.359 3.02.87 3.802 1.531.788.662 1.183 1.556 1.183 2.683 0 1.21-.472 2.203-1.415 2.978C8.762 15.616 7.558 16 6.094 16c-1.19 0-2.274-.197-3.253-.591C1.869 15.014.922 14.405 0 13.58ZM16.452 15.789V0h1.056v15.789h-1.056ZM23.442 1.88V.433h1.31V1.88h-1.31Zm.127 13.909V4.763h1.056v11.026h-1.056ZM30.527 15.789V4.763h1.067v1.964c.204-.323.408-.605.612-.844.204-.24.45-.469.74-.687a3.264 3.264 0 0 1 1.024-.517c.394-.12.827-.18 1.299-.18.901 0 1.662.222 2.281.665a4.248 4.248 0 0 1 1.436 1.711c.923-1.584 2.25-2.376 3.982-2.376 1.302 0 2.334.419 3.094 1.257.76.838 1.14 1.954 1.14 3.348v6.685h-1.055V9.23c0-1.182-.289-2.105-.866-2.767-.578-.661-1.377-.992-2.398-.992-.971 0-1.795.352-2.47 1.056-.677.704-1.015 1.65-1.015 2.84v6.422h-1.056V9.167c0-1.14-.292-2.042-.876-2.704-.578-.661-1.36-.992-2.345-.992-.986 0-1.82.383-2.503 1.15-.683.761-1.024 1.698-1.024 2.81v6.358h-1.067Z" fill="#212121"/>
    <path d="M52.795 15.204V.059h1.056l6.083 8.956L66.007.059h1.066v15.145h-1.13V2.055l-5.988 8.713h-.084l-5.999-8.713v13.149h-1.077ZM72.31 9.69c0-.767.144-1.502.433-2.206a5.902 5.902 0 0 1 1.172-1.838 5.366 5.366 0 0 1 1.806-1.257 5.516 5.516 0 0 1 2.27-.475c1.064 0 2.028.264 2.894.792a5.413 5.413 0 0 1 2.028 2.112c.486.88.729 1.838.729 2.873a5.827 5.827 0 0 1-.729 2.862 5.642 5.642 0 0 1-2.049 2.123c-.873.528-1.844.792-2.915.792a5.523 5.523 0 0 1-2.249-.465 5.47 5.47 0 0 1-1.795-1.246 5.904 5.904 0 0 1-1.173-1.838 5.998 5.998 0 0 1-.422-2.228Zm1.14 0c0 1.332.437 2.462 1.31 3.39.88.923 1.957 1.384 3.232 1.384.802 0 1.549-.21 2.239-.633.69-.43 1.239-1.01 1.647-1.743a4.84 4.84 0 0 0 .613-2.397c0-1.324-.444-2.45-1.331-3.38-.887-.936-1.957-1.404-3.21-1.404-.817 0-1.57.214-2.26.644a4.538 4.538 0 0 0-1.638 1.742 4.906 4.906 0 0 0-.602 2.398ZM88.625 15.204V4.178h1.067v1.964c.204-.324.408-.605.612-.845.204-.239.45-.468.74-.686a3.263 3.263 0 0 1 1.024-.518c.394-.12.827-.18 1.299-.18.901 0 1.661.223 2.281.666a4.249 4.249 0 0 1 1.436 1.711c.923-1.584 2.25-2.376 3.982-2.376 1.302 0 2.334.419 3.094 1.257.761.837 1.141 1.953 1.141 3.347v6.686h-1.056V8.645c0-1.183-.289-2.105-.866-2.767-.578-.662-1.377-.993-2.398-.993-.971 0-1.795.353-2.47 1.057-.677.704-1.015 1.65-1.015 2.84v6.422H96.44V8.582c0-1.14-.292-2.042-.876-2.704-.578-.662-1.36-.993-2.345-.993-.986 0-1.82.384-2.503 1.152-.683.76-1.024 1.696-1.024 2.809v6.358h-1.067Z" fill="#FC842D"/>
  </symbol>

  <!-- Arrow Up -->
  <symbol id="arrow-up">
    <path d="M12.7618 0.856683C12.6826 0.310102 12.1753 -0.0688157 11.6288 0.0103471L2.7217 1.30039C2.17512 1.37955 1.7962 1.88681 1.87536 2.4334C1.95453 2.97998 2.46179 3.3589 3.00837 3.27973L10.9258 2.13303L12.0725 10.0504C12.1516 10.597 12.6589 10.9759 13.2055 10.8968C13.7521 10.8176 14.131 10.3103 14.0518 9.76375L12.7618 0.856683ZM1.80116 16.0193L12.5733 1.59847L10.9709 0.401571L0.19884 14.8224L1.80116 16.0193Z" fill="#0C0D0D"/>
  </symbol>

  <!-- Arrow Down -->
  <symbol id="arrow-down" xmlns="http://www.w3.org/2000/svg" width="15" height="16" viewBox="0 0 15 16" fill="none">
    <path d="M1.60045 14.75C1.66528 15.2984 2.16245 15.6905 2.71092 15.6257L11.6487 14.5692C12.1972 14.5044 12.5892 14.0072 12.5244 13.4588C12.4596 12.9103 11.9624 12.5182 11.4139 12.5831L3.46924 13.5221L2.53019 5.57742C2.46536 5.02895 1.96819 4.63689 1.41972 4.70172C0.871256 4.76654 0.479189 5.26372 0.544017 5.81218L1.60045 14.75ZM12.5623 0.376388L1.80832 14.0134L3.37876 15.2518L14.1328 1.61482L12.5623 0.376388Z" fill="#0C0D0D"/>
  </symbol>

  <!-- Show Eye -->
  <symbol fill="none" viewBox="0 0 20 20" id="eye" xmlns="http://www.w3.org/2000/svg">
    <path d="M.833 10S4.167 3.333 10 3.333 19.167 10 19.167 10 15.833 16.667 10 16.667.833 10 .833 10Z" stroke="#FAFAFA" stroke-width="1.5" stroke-linecap="round" stroke-linejoin="round"/>
    <path d="M10 12.5a2.5 2.5 0 1 0 0-5 2.5 2.5 0 0 0 0 5Z" stroke="#FAFAFA" stroke-width="1.5" stroke-linecap="round" stroke-linejoin="round"/>
  </symbol>

  <!-- Close Eye -->
  <symbol id="eye-off">
    <g clip-path="url(#clip0_81_149)">
      <path d="M14.9499 14.9499C13.5254 16.0358 11.7908 16.6373 9.99992 16.6666C4.16659 16.6666 0.833252 9.99994 0.833252 9.99994C1.86983 8.06819 3.30753 6.38045 5.04992 5.04994M8.24992 3.53327C8.82353 3.39901 9.41081 3.33189 9.99992 3.33327C15.8333 3.33327 19.1666 9.99994 19.1666 9.99994C18.6607 10.9463 18.0575 11.8372 17.3666 12.6583M11.7666 11.7666C11.5377 12.0122 11.2617 12.2092 10.955 12.3459C10.6484 12.4825 10.3173 12.556 9.98166 12.5619C9.64599 12.5678 9.31256 12.5061 9.00126 12.3803C8.68997 12.2546 8.40719 12.0675 8.16979 11.8301C7.9324 11.5927 7.74525 11.3099 7.61951 10.9986C7.49377 10.6873 7.43202 10.3539 7.43795 10.0182C7.44387 9.68252 7.51734 9.35148 7.65398 9.04481C7.79062 8.73815 7.98763 8.46215 8.23325 8.23327" stroke="#FAFAFA" stroke-width="1.5" stroke-linecap="round" stroke-linejoin="round"/>
      <path d="M0.833252 0.833374L19.1666 19.1667" stroke="#FAFAFA" stroke-width="1.5" stroke-linecap="round" stroke-linejoin="round"/>
    </g>
    <defs>
      <clipPath id="clip0_81_149">
        <rect width="20" height="20" fill="white"/>
      </clipPath>
    </defs>
  </symbol>

  <!-- Chevron Up -->
  <symbol id="chevron-up">
    <path d="M5 12.5L10 7.5L15 12.5" stroke="#0EF387" stroke-width="2" stroke-linecap="round" stroke-linejoin="round"/>
  </symbol>

  <!-- Chevron Down -->
  <symbol id="chevron-down">
    <path d="M5 7.5L10 12.5L15 7.5" stroke="#0EF387" stroke-width="2" stroke-linecap="round" stroke-linejoin="round"/>
  </symbol>

  <!-- User Icon -->
  <symbol id="user-icon" fill="none" xmlns="http://www.w3.org/2000/svg">
    <path d="M13.3333 14.5V13.1667C13.3333 12.4594 13.0524 11.7811 12.5523 11.281C12.0522 10.781 11.3739 10.5 10.6667 10.5H5.33334C4.62609 10.5 3.94782 10.781 3.44772 11.281C2.94762 11.7811 2.66667 12.4594 2.66667 13.1667V14.5"
          stroke-width="1.3" stroke-linecap="round" stroke-linejoin="round"/>
    <path d="M7.99999 7.83333C9.47275 7.83333 10.6667 6.63943 10.6667 5.16667C10.6667 3.69391 9.47275 2.5 7.99999 2.5C6.52724 2.5 5.33333 3.69391 5.33333 5.16667C5.33333 6.63943 6.52724 7.83333 7.99999 7.83333Z"
          stroke-width="1.3" stroke-linecap="round" stroke-linejoin="round"/>
  </symbol>

  <!-- Logout Icon -->
  <symbol id="log-out" fill="none" xmlns="http://www.w3.org/2000/svg">
    <path d="M6 14.5H3.33333C2.97971 14.5 2.64057 14.3595 2.39052 14.1095C2.14048 13.8594 2 13.5203 2 13.1667V3.83333C2 3.47971 2.14048 3.14057 2.39052 2.89052C2.64057 2.64048 2.97971 2.5 3.33333 2.5H6"
          stroke-width="1.3" stroke-linecap="round" stroke-linejoin="round"/>
    <path d="M10.6667 11.8334L14 8.50002L10.6667 5.16669"
          stroke-width="1.3" stroke-linecap="round" stroke-linejoin="round"/>
    <path d="M14 8.5H6" stroke-width="1.3" stroke-linecap="round" stroke-linejoin="round"/>
  </symbol>

  <!-- Invalid Icon -->
  <symbol id="invalid-icon" xmlns="http://www.w3.org/2000/svg" width="20" height="20" viewBox="0 0 20 20" fill="none">
    <path d="M0 10C0 4.47656 4.47656 0 10 0C15.5234 0 20 4.47656 20 10C20 15.5234 15.5234 20 10 20C4.47656 20 0 15.5234 0 10ZM6.83594 8.12891L8.67578 9.96484L6.83594 11.8359C6.47266 12.2031 6.47266 12.7969 6.83594 13.1289C7.20312 13.5273 7.79688 13.5273 8.12891 13.1289L9.96484 11.3242L11.8359 13.1289C12.2031 13.5273 12.7969 13.5273 13.1289 13.1289C13.5273 12.7969 13.5273 12.2031 13.1289 11.8359L11.3242 9.96484L13.1289 8.12891C13.5273 7.79688 13.5273 7.20312 13.1289 6.83594C12.7969 6.47266 12.2031 6.47266 11.8359 6.83594L9.96484 8.67578L8.12891 6.83594C7.79688 6.47266 7.20312 6.47266 6.83594 6.83594C6.47266 7.20312 6.47266 7.79688 6.83594 8.12891Z" fill="#E74A3B"/>
  </symbol>

  <!-- Valid Icon -->
  <symbol id="valid-icon" xmlns="http://www.w3.org/2000/svg" width="20" height="20" viewBox="0 0 20 20" fill="none">
    <path d="M0 10C0 4.47656 4.47656 0 10 0C15.5234 0 20 4.47656 20 10C20 15.5234 15.5234 20 10 20C4.47656 20 0 15.5234 0 10ZM14.5234 8.27344C14.9492 7.84766 14.9492 7.15234 14.5234 6.72656C14.0977 6.30078 13.4023 6.30078 12.9766 6.72656L8.75 10.9531L7.02344 9.22656C6.59766 8.80078 5.90234 8.80078 5.47656 9.22656C5.05078 9.65234 5.05078 10.3477 5.47656 10.7734L7.97656 13.2734C8.40234 13.6992 9.09766 13.6992 9.52344 13.2734L14.5234 8.27344Z" fill="#097B45"/>
  </symbol>

  <!-- Vector 4 -->
  <symbol id="vector4" xmlns="http://www.w3.org/2000/svg" width="330" height="2" viewBox="0 0 330 2" fill="none">
  <path d="M0 1H330" stroke="#E0E0E0"/>
</symbol>

  <!-- Calendar Icon -->
  <symbol id="calendar-icon" xmlns="http://www.w3.org/2000/svg" width="20" height="20" viewBox="0 0 20 20" fill="none">
    <path d="M15.8333 3.33337H4.16667C3.24619 3.33337 2.5 4.07957 2.5 5.00004V16.6667C2.5 17.5872 3.24619 18.3334 4.16667 18.3334H15.8333C16.7538 18.3334 17.5 17.5872 17.5 16.6667V5.00004C17.5 4.07957 16.7538 3.33337 15.8333 3.33337Z" stroke="#FAFAFA" stroke-width="1.5" stroke-linecap="round" stroke-linejoin="round"/>
    <path d="M13.3333 1.66663V4.99996" stroke="#FAFAFA" stroke-width="1.5" stroke-linecap="round" stroke-linejoin="round"/>
    <path d="M6.66666 1.66663V4.99996" stroke="#FAFAFA" stroke-width="1.5" stroke-linecap="round" stroke-linejoin="round"/>
    <path d="M2.5 8.33337H17.5" stroke="#FAFAFA" stroke-width="1.5" stroke-linecap="round" stroke-linejoin="round"/>
  </symbol>

  <!-- Short Line -->
  <symbol id="short-line" xmlns="http://www.w3.org/2000/svg" width="2" height="32" viewBox="0 0 2 32" fill="none">
    <path d="M1 0L0.999999 32" stroke="#E0E0E0" stroke-width="2"/>
  </symbol>

  <symbol fill="none" viewBox="0 0 24 24" id="menu" xmlns="http://www.w3.org/2000/svg">
    <g clip-path="url(#aa)">
      <path d="M3 18h18v-2H3v2Zm0-5h18v-2H3v2Zm0-7v2h18V6H3Z" fill="#212121"/>
    </g>
    <defs>
      <clipPath id="aa">
        <path fill="#fff" d="M0 0h24v24H0z"/>
      </clipPath>
    </defs>
  </symbol>

  <symbol fill="none" viewBox="0 0 38 38" id="user-bold" xmlns="http://www.w3.org/2000/svg">
    <path d="M34.79 31.172a18.312 18.312 0 0 0-9.021-7.901 11.281 11.281 0 1 0-13.538 0 18.312 18.312 0 0 0-9.022 7.9 1.782 1.782 0 1 0 3.083 1.782c2.69-4.649 7.44-7.422 12.708-7.422s10.018 2.775 12.708 7.422a1.781 1.781 0 0 0 3.083-1.781ZM11.282 14.25A7.718 7.718 0 1 1 19 21.97a7.727 7.727 0 0 1-7.719-7.719Z" fill="#0EF387"/>
  </symbol>

  <symbol fill="none" viewBox="0 0 44 44" id="menu" xmlns="http://www.w3.org/2000/svg">
    <path d="M5.5 15.583h33m-33 12.834h33" stroke="#FAFAFA" stroke-width="3" stroke-linecap="round" stroke-linejoin="round"/>
  </symbol>

  <symbol id="calendar" viewBox="0 0 20 20" fill="none" xmlns="http://www.w3.org/2000/svg">
    <path d="M15 9H13V11H15V9Z" fill="#9B9FAA"/>
    <path d="M11 9H9V11H11V9Z" fill="#9B9FAA"/>
    <path d="M7.00002 9H5V11H7.00002V9Z" fill="#9B9FAA"/>
    <path d="M17 2.00001H16V0H14V2.00001H6.00001V0H4V2.00001H3.00001C1.89001 2.00001 1.01003 2.90001 1.01003 4.00003L1 18C1 19.1 1.89001 20 3.00001 20H17C18.1 20 19 19.1 19 18V3.99998C19 2.90001 18.1 2.00001 17 2.00001ZM17 18H3.00001V6.99998H17V18Z" fill="#9B9FAA"/>
  </symbol>
</svg>
